<!-- sample rectangle -->
<svg width="16" height="16" viewBox="0 0 16 16" xmlns="http://www.w3.org/2000/svg">
<path d="M6.03814 0.24373C6.66823 0.084563 7.32807 0 8.00767 0C9.19591 0 10.3237 0.258507 11.3378 0.722292C11.5285 2.245 11.4306 3.79366 11.0456 5.33009C10.8581 6.07853 10.6061 6.7978 10.2977 7.47999C9.4964 6.89771 8.67258 6.35956 7.81872 5.86064C7.89536 5.65585 7.95697 5.44428 8.0028 5.22693C8.38697 3.40204 7.5711 1.45285 6.03814 0.24373Z" />
<path d="M12.4621 1.35068C14.4723 2.69715 15.8381 4.92917 16 7.48775C14.6489 7.67979 13.4523 8.35108 12.5928 9.32114C12.1222 8.90661 11.6459 8.51063 11.1621 8.13204C11.5428 7.32884 11.8503 6.47676 12.0732 5.58702C12.4263 4.17712 12.5564 2.75666 12.4621 1.35068Z"/>
<path d="M15.9969 8.5597C15.9177 9.70436 15.5974 10.7828 15.0865 11.7446C14.5215 11.1432 13.9525 10.5735 13.3762 10.0332C14.041 9.27773 14.9581 8.74357 15.9969 8.5597Z" />
<path d="M14.5067 12.6757C13.9745 13.4125 13.3199 14.0552 12.5726 14.574C12.3716 14.0629 12.2676 13.5168 12.2676 12.9583C12.2676 12.2234 12.4486 11.5292 12.7688 10.9169C13.3544 11.4707 13.9325 12.0561 14.5067 12.6757Z"/>
<path d="M11.6538 15.1247C10.5602 15.6843 9.32084 16 8.00767 16C6.41955 16 4.93939 15.5382 3.69442 14.7417C6.55777 13.9266 9.0644 11.8617 10.6614 9.08803C11.1021 9.43729 11.5365 9.80164 11.966 10.182C11.4842 10.9983 11.208 11.9471 11.208 12.9583C11.208 13.7104 11.3603 14.4446 11.6538 15.1247Z"/>
<path d="M2.61175 13.9116C1.0327 12.4725 0.0323157 10.4105 0 8.11476C0.548269 8.44246 1.15684 8.68036 1.80122 8.81591C3.18322 9.1064 4.58521 8.90022 5.75081 8.23533C6.40055 7.8645 6.93433 7.37626 7.32799 6.8028C8.18477 7.3058 9.0104 7.84979 9.81301 8.44009C8.21297 11.2968 5.57975 13.3503 2.61175 13.9116Z"/>
<path d="M0.0762557 6.88571C0.221194 5.84677 0.565878 4.87171 1.0703 4.00049C2.99997 4.6473 4.75868 5.39573 6.39909 6.28007C6.09991 6.69086 5.70325 7.04317 5.22521 7.3159C4.28521 7.85213 3.14642 8.01676 2.01962 7.78021C1.29814 7.62844 0.633216 7.32164 0.0762557 6.88571Z"/>
<path d="M1.68376 3.09097C3.55677 3.73307 5.27341 4.47082 6.87997 5.33439C6.914 5.22789 6.94274 5.11928 6.966 5.00876C7.30788 3.38544 6.36357 1.56142 4.78176 0.675538C3.55808 1.21412 2.4949 2.04974 1.68376 3.09097Z" />
</svg>
