<svg width="23" height="24" viewBox="0 0 23 24" fill="none" xmlns="http://www.w3.org/2000/svg">
<path d="M21.9803 21.8685C21.76 21.8413 21.3398 21.5256 21.1826 21.369L17.0541 17.2552L15.5744 18.7349L19.6882 22.8634C19.8449 23.0205 20.1605 23.4408 20.1877 23.6611C20.2066 23.8127 20.3057 23.9505 20.4522 23.9943C20.8315 24.1076 22.4269 22.5123 22.3135 22.133C22.2697 21.9865 22.1319 21.8869 21.9803 21.8685Z" fill="#000"/>
<path d="M16.3458 16.3215L16.6551 16.8331L15.1431 18.345L14.6316 18.0358C12.7123 16.8764 10.5648 16.8787 9.28143 16.8801H9.14963C9.1312 16.8801 9.11415 16.8759 9.09572 16.8745C6.9045 16.934 4.54048 16.016 2.7018 14.1773C-0.503225 10.9723 -0.916124 6.16961 1.78199 3.47149C3.61837 1.63511 6.42939 1.24157 9.04825 2.18672C8.83074 2.64155 8.66024 3.12311 8.55702 3.63002C6.47456 2.86413 4.27597 3.13509 2.86078 4.55028C0.757583 6.65348 1.17002 10.488 3.78058 13.0981C6.39069 15.7082 10.2257 16.1211 12.3289 14.0179C13.1159 13.2308 13.55 12.2013 13.6491 11.0843C13.9993 11.1451 14.3579 11.1834 14.7251 11.1834C14.8823 11.1834 15.0362 11.1714 15.1901 11.1599C15.1915 12.4585 15.2417 14.493 16.3458 16.3215ZM14.6062 16.2957C14.3141 15.669 14.1127 15.0418 13.9735 14.4372C13.8026 14.6681 13.6155 14.8898 13.4076 15.0971C13.1998 15.305 12.9786 15.4921 12.7473 15.663C13.3523 15.8022 13.9791 16.0036 14.6062 16.2957Z" fill="#000"/>
<path d="M13.4413 5.38802C12.8028 5.75645 12.0854 5.93928 11.355 5.93928C10.755 5.93928 10.1466 5.81584 9.56608 5.57096C9.87934 7.95219 11.8944 9.7973 14.3498 9.84477C14.1785 8.04535 14.9862 6.34165 16.4585 5.49142C17.336 4.98444 18.3518 4.82038 19.3691 5.01289C19.3697 4.98287 19.3699 4.95277 19.3699 4.92262C19.3699 2.52097 17.6502 0.520984 15.375 0.0869019C15.9839 2.17432 15.2247 4.35842 13.4413 5.38802Z" fill="#000"/>
<path d="M14.3786 0C15.0624 1.78639 14.49 3.72376 12.9829 4.59391C11.9571 5.18633 10.6587 5.15999 9.53848 4.5391C9.73245 2.02175 11.8197 0.0347805 14.3786 0Z" fill="#000"/>
<path d="M19.2672 5.92809C18.4431 5.75708 17.6209 5.87942 16.9174 6.28553C15.7524 6.95775 15.1188 8.32585 15.2645 9.77812C17.2653 9.44367 18.8575 7.90242 19.2672 5.92809Z" fill="#000"/>
</svg>
