<svg width="21" height="20" viewBox="0 0 21 20" fill="none" xmlns="http://www.w3.org/2000/svg">
<circle cx="9.7194" cy="9.7194" r="9.7194" transform="matrix(-4.37114e-08 1 1 4.37114e-08 0.603027 0.222656)" fill="#18242A"/>
<g clip-path="url(#clip0_1193_4876)">
<path d="M7.27165 7.40484H12.4013L9.83136 10.6365L7.27165 7.40484ZM5.86099 7.20479C6.89718 8.53337 8.81056 10.9956 8.81056 10.9956V14.0734C8.81056 14.3556 9.04139 14.5864 9.32352 14.5864H10.3495C10.6316 14.5864 10.8624 14.3556 10.8624 14.0734V10.9956C10.8624 10.9956 12.7707 8.53337 13.8069 7.20479C14.0685 6.86623 13.8274 6.37891 13.4016 6.37891H6.26623C5.84047 6.37891 5.59937 6.86623 5.86099 7.20479Z" fill="white"/>
</g>
<circle cx="9.7194" cy="9.7194" r="9.7194" transform="matrix(-4.37114e-08 1 1 4.37114e-08 0.603027 0.222656)" fill="#18242A"/>
<g clip-path="url(#clip1_1193_4876)">
<path d="M7.2716 8.94094H8.29754V9.96687H7.2716V8.94094ZM14.4532 6.37609V13.5577C14.4532 14.1219 13.9915 14.5836 13.4272 14.5836H6.24566C5.67627 14.5836 5.21973 14.1219 5.21973 13.5577L5.22486 6.37609C5.22486 5.81183 5.67627 5.35016 6.24566 5.35016H6.75863V4.32422H7.78457V5.35016H11.8883V4.32422H12.9143V5.35016H13.4272C13.9915 5.35016 14.4532 5.81183 14.4532 6.37609ZM6.24566 7.40203H13.4272V6.37609H6.24566V7.40203ZM13.4272 13.5577V8.42797H6.24566V13.5577H13.4272ZM11.3753 9.96687H12.4013V8.94094H11.3753V9.96687ZM9.32347 9.96687H10.3494V8.94094H9.32347V9.96687Z" fill="white"/>
</g>
<defs>
<clipPath id="clip0_1193_4876">
<rect width="12.3112" height="12.3112" fill="white" transform="translate(3.68091 4.32617)"/>
</clipPath>
<clipPath id="clip1_1193_4876">
<rect width="12.3112" height="12.3112" fill="white" transform="translate(3.68091 3.29883)"/>
</clipPath>
</defs>
</svg>
